<svg width="62" height="84" viewBox="0 0 62 84" fill="none" xmlns="http://www.w3.org/2000/svg">
<path d="M60.1261 41.3313C60.1261 39.1714 59.4195 37.1 58.1618 35.5728C56.9041 34.0455 55.1982 33.1875 53.4195 33.1875C53.184 33.1872 52.9486 33.2018 52.7144 33.2313L61.9276 0.237549H22.7765L31.9769 33.2032C31.843 33.2032 31.7066 33.1875 31.5702 33.1875C29.9687 33.1853 28.4194 33.8791 27.2025 35.1434C25.9856 36.4077 25.1814 38.1591 24.9355 40.0807C24.6896 42.0024 25.0181 43.9675 25.8616 45.6206C26.7051 47.2737 28.008 48.5057 29.5346 49.0938C28.1079 52.0765 26.3316 54.7914 24.2614 57.1532C21.5666 60.2813 18.365 62.694 14.8603 64.2375C12.8967 63.1076 11.361 61.1123 10.5652 58.6571C9.76928 56.2019 9.77294 53.4709 10.5754 51.0188C10.7735 50.4563 10.9743 49.8875 11.1647 49.3188C12.6601 48.8912 13.9893 47.8533 14.9302 46.3787C15.8712 44.9041 16.3668 43.0821 16.3344 41.217C16.302 39.352 15.7435 37.5569 14.7522 36.1318C13.7609 34.7067 12.3968 33.7379 10.8879 33.3872C9.37903 33.0366 7.81675 33.3253 6.46213 34.2052C5.1075 35.0851 4.04259 36.5029 3.44533 38.2216C2.84808 39.9403 2.75466 41.8559 3.1807 43.6482C3.60673 45.4404 4.52641 47.0009 5.78605 48.0688C3.64528 52.7822 2.01148 57.8097 0.924651 63.0282C0.0136211 69.7001 0.92465 76.7782 5.67281 80.7813C16.739 90.0969 28.7548 75.0063 41.4217 71.2157C46.0129 69.8407 51.0519 70.0625 55.0949 67.2188C56.5555 66.2086 57.8152 64.8204 58.7843 63.1526C59.7535 61.4848 60.4084 59.5785 60.7026 57.5688C60.9716 55.6538 60.9209 53.6927 60.5535 51.802C60.1862 49.9113 59.5096 48.1295 58.564 46.5625C59.5729 45.0985 60.125 43.2497 60.1236 41.3407L60.1261 41.3313ZM38.2794 41.375V41.3469C38.2813 39.9455 37.9847 38.5672 37.4183 37.3461C36.8519 36.1251 36.0351 35.1026 35.0471 34.3782L42.3662 16.375L49.7008 34.5438C48.7806 35.2863 48.0262 36.2939 47.5048 37.4766C46.9835 38.6593 46.7114 39.9804 46.7129 41.3219V41.5L38.2794 41.375Z" fill="#C63D14"/>
</svg>
