<svg width="67" height="88" viewBox="0 0 67 88" fill="none" xmlns="http://www.w3.org/2000/svg">
<path d="M63.7654 43.3312C63.7629 40.9699 63.0821 38.6837 61.8405 36.8663C60.599 35.0489 58.8743 33.8142 56.9636 33.375L66.2129 0.25H22.4938L31.7585 33.4406C30.141 33.8796 28.668 34.8938 27.5273 36.3537C26.3865 37.8136 25.6298 39.653 25.3537 41.6374C25.0775 43.6217 25.2945 45.6609 25.9769 47.4949C26.6592 49.3289 27.7761 50.8744 29.1849 51.9344C28.0211 54.0339 26.6676 55.9688 25.1496 57.7031C22.7999 60.4329 20.0387 62.5868 17.0173 64.0469C15.5993 63.0474 14.5245 61.4623 13.9887 59.5807C13.453 57.6991 13.4921 55.6464 14.0989 53.7969L14.2018 53.5062L14.3923 52.9594C16.1075 52.2373 17.5822 50.8562 18.5931 49.0252C19.6041 47.1942 20.0961 45.0131 19.9948 42.8122C19.8934 40.6112 19.2042 38.5103 18.0315 36.8276C16.8588 35.1448 15.2665 33.972 13.4957 33.4865C11.7248 33.0011 9.87199 33.2296 8.21769 34.1374C6.56338 35.0451 5.19773 36.5828 4.32754 38.5174C3.45735 40.452 3.13001 42.6783 3.39511 44.8591C3.66021 47.0398 4.50329 49.0563 5.79669 50.6031C5.51875 51.325 5.22537 52.0563 4.92427 52.8094C3.25567 56.5348 2.04199 60.5349 1.32132 64.6844C0.124633 73.4344 2.05478 80.4437 6.75405 84.3969C9.27673 86.5874 12.3024 87.7603 15.4037 87.75C20.8904 87.75 26.4415 84.4031 31.8743 81.1281C35.6701 78.6214 39.6747 76.6122 43.8206 75.1344C45.3055 74.6906 46.8342 74.4219 48.4529 74.1375C51.7508 73.8175 54.9666 72.7267 57.9235 70.925C59.5911 69.7684 61.0288 68.1807 62.1348 66.2744C63.2409 64.3681 63.9882 62.1898 64.3239 59.8938C64.8707 55.993 64.2392 51.9836 62.5456 48.6031C63.3467 47.0158 63.7699 45.1899 63.768 43.3281L63.7654 43.3312ZM60.4893 43.3312C60.4893 44.5488 60.192 45.7391 59.6349 46.7515C59.0778 47.7639 58.286 48.5529 57.3596 49.0189C56.4332 49.4848 55.4139 49.6068 54.4304 49.3692C53.447 49.1317 52.5436 48.5453 51.8346 47.6844C51.1255 46.8234 50.6427 45.7265 50.4471 44.5323C50.2514 43.3381 50.3518 42.1003 50.7356 40.9754C51.1193 39.8504 51.7691 38.889 52.6028 38.2125C53.4366 37.5361 54.4168 37.175 55.4195 37.175C56.7637 37.1767 58.0524 37.8258 59.0029 38.9799C59.9534 40.1341 60.488 41.699 60.4893 43.3312ZM61.6397 4.22813L53.4713 33.4781C53.1215 33.5809 52.7777 33.7114 52.4419 33.8688L44.3739 13.8687L36.2801 33.75C35.9278 33.6017 35.5675 33.4827 35.2018 33.3937L27.0618 4.22813H61.6397ZM33.5702 37.175C34.5729 37.175 35.5531 37.5361 36.3869 38.2125C37.2206 38.889 37.8704 39.8504 38.2542 40.9754C38.6379 42.1003 38.7383 43.3381 38.5427 44.5323C38.347 45.7265 37.8642 46.8234 37.1551 47.6844C36.4461 48.5453 35.5428 49.1317 34.5593 49.3692C33.5758 49.6068 32.5565 49.4848 31.6301 49.0189C30.7037 48.5529 29.9119 47.7639 29.3548 46.7515C28.7977 45.7391 28.5004 44.5488 28.5004 43.3312C28.5017 41.699 29.0363 40.1341 29.9868 38.9799C30.9373 37.8258 32.226 37.1767 33.5702 37.175ZM11.6386 37.2344C12.6418 37.235 13.6222 37.597 14.4559 38.2745C15.2896 38.952 15.939 39.9146 16.3219 41.0405C16.7049 42.1664 16.8041 43.4049 16.6072 44.5993C16.4102 45.7937 15.9259 46.8904 15.2155 47.7504C14.505 48.6104 13.6005 49.1952 12.6163 49.4307C11.632 49.6662 10.6124 49.5419 9.68636 49.0735C8.76034 48.605 7.96958 47.8135 7.41416 46.7992C6.85874 45.7848 6.56363 44.5931 6.56618 43.375C6.56754 41.7428 7.10212 40.1779 8.05261 39.0237C9.00309 37.8695 10.2918 37.2204 11.636 37.2188L11.6386 37.2344ZM61.0941 59.2156C60.8397 60.9382 60.2766 62.5718 59.4445 64.0007C58.6124 65.4297 57.5317 66.6189 56.279 67.4844C53.68 69.0167 50.8657 69.9381 47.9846 70.2C46.3581 70.4844 44.6776 70.7781 43.0331 71.2719C38.6554 72.8112 34.4274 74.9203 30.4228 77.5625C22.2801 82.4719 15.239 86.7125 8.61985 81.1344C3.7636 77.0469 3.9875 69.4844 4.55368 65.3406C5.21996 61.5697 6.33118 57.9353 7.85294 54.55C8.08971 53.9594 8.32132 53.3781 8.5478 52.8031C9.23908 53.1387 9.9645 53.3594 10.7044 53.4594C10.0494 56.2687 10.2324 59.2686 11.2212 61.93C12.21 64.5914 13.9409 66.7433 16.1088 68.0062L16.7393 68.4L17.4059 68.1125C21.1238 66.483 24.5205 63.9284 27.3783 60.6125C29.266 58.4562 30.9242 56.0217 32.3143 53.3656C34.093 53.6941 35.9114 53.3155 37.4983 52.2862C39.0852 51.257 40.3555 49.6323 41.1196 47.6545C41.8838 45.6768 42.1008 43.452 41.7384 41.3122C41.3759 39.1724 40.4534 37.2322 39.1085 35.7812L44.3533 22.9031L49.6522 36.0281C48.1445 37.7925 47.2387 40.181 47.1148 42.7191C46.9908 45.2572 47.6577 47.759 48.9831 49.7273C50.3084 51.6957 52.1951 52.9866 54.2683 53.3434C56.3414 53.7001 58.4492 53.0968 60.1728 51.6531C61.1285 53.9954 61.4483 56.6451 61.0864 59.2219L61.0941 59.2156Z" fill="white"/>
</svg>
